<svg width="3000" height="1700" viewBox="0 0 3000 1700" fill="none" xmlns="http://www.w3.org/2000/svg">
<g clip-path="url(#clip0_1068_161145)">
<path d="M1355.06 926.25V919H1386.31V926.25H1355.06ZM1439.15 928.625V881H1438.9L1405.9 928.625H1439.15ZM1398.78 927.625L1439.28 869.5H1446.4V928.625H1459.53V935.25H1446.4V957H1439.15V935.25H1398.78V927.625ZM1500.44 868.75C1506.86 868.75 1512.03 870.167 1515.94 873C1519.94 875.75 1523.03 879.292 1525.19 883.625C1527.44 887.958 1528.94 892.792 1529.69 898.125C1530.53 903.458 1530.94 908.667 1530.94 913.75C1530.94 918.917 1530.53 924.167 1529.69 929.5C1528.94 934.833 1527.44 939.667 1525.19 944C1523.03 948.333 1519.94 951.875 1515.94 954.625C1512.03 957.375 1506.86 958.75 1500.44 958.75C1494.11 958.75 1488.94 957.375 1484.94 954.625C1480.94 951.875 1477.82 948.333 1475.57 944C1473.4 939.667 1471.9 934.833 1471.07 929.5C1470.32 924.167 1469.94 918.958 1469.94 913.875C1469.94 908.708 1470.32 903.458 1471.07 898.125C1471.9 892.792 1473.4 887.958 1475.57 883.625C1477.82 879.292 1480.94 875.75 1484.94 873C1488.94 870.167 1494.11 868.75 1500.44 868.75ZM1500.44 875.375C1495.44 875.375 1491.44 876.667 1488.44 879.25C1485.44 881.833 1483.15 885.042 1481.57 888.875C1480.07 892.708 1479.07 896.875 1478.57 901.375C1478.07 905.875 1477.82 910 1477.82 913.75C1477.82 917.583 1478.07 921.75 1478.57 926.25C1479.07 930.667 1480.07 934.833 1481.57 938.75C1483.15 942.583 1485.44 945.792 1488.44 948.375C1491.44 950.958 1495.44 952.25 1500.44 952.25C1505.44 952.25 1509.44 950.958 1512.44 948.375C1515.44 945.792 1517.69 942.583 1519.19 938.75C1520.78 934.833 1521.82 930.667 1522.32 926.25C1522.82 921.75 1523.07 917.583 1523.07 913.75C1523.07 910 1522.82 905.875 1522.32 901.375C1521.82 896.875 1520.78 892.708 1519.19 888.875C1517.69 885.042 1515.44 881.833 1512.44 879.25C1509.44 876.667 1505.44 875.375 1500.44 875.375ZM1564.86 868.75C1568.36 868.75 1571.36 869.375 1573.86 870.625C1576.44 871.792 1578.53 873.458 1580.11 875.625C1581.69 877.708 1582.86 880.208 1583.61 883.125C1584.36 885.958 1584.73 889.042 1584.73 892.375C1584.73 895.708 1584.36 898.833 1583.61 901.75C1582.86 904.583 1581.69 907.083 1580.11 909.25C1578.53 911.333 1576.44 913 1573.86 914.25C1571.36 915.417 1568.36 916 1564.86 916C1561.36 916 1558.32 915.417 1555.73 914.25C1553.23 913 1551.19 911.333 1549.61 909.25C1548.03 907.083 1546.86 904.583 1546.11 901.75C1545.36 898.833 1544.98 895.708 1544.98 892.375C1544.98 889.042 1545.36 885.958 1546.11 883.125C1546.86 880.208 1548.03 877.708 1549.61 875.625C1551.19 873.458 1553.23 871.792 1555.73 870.625C1558.32 869.375 1561.36 868.75 1564.86 868.75ZM1619.73 917.25C1617.07 917.25 1614.86 917.833 1613.11 919C1611.44 920.083 1610.11 921.542 1609.11 923.375C1608.11 925.125 1607.4 927.083 1606.98 929.25C1606.65 931.333 1606.48 933.375 1606.48 935.375C1606.48 937.375 1606.65 939.417 1606.98 941.5C1607.4 943.583 1608.11 945.5 1609.11 947.25C1610.11 949 1611.44 950.458 1613.11 951.625C1614.86 952.708 1617.07 953.25 1619.73 953.25C1622.32 953.25 1624.44 952.708 1626.11 951.625C1627.86 950.458 1629.23 949 1630.23 947.25C1631.23 945.5 1631.94 943.583 1632.36 941.5C1632.78 939.417 1632.98 937.375 1632.98 935.375C1632.98 933.375 1632.78 931.333 1632.36 929.25C1631.94 927.083 1631.23 925.125 1630.23 923.375C1629.23 921.542 1627.86 920.083 1626.11 919C1624.44 917.833 1622.32 917.25 1619.73 917.25ZM1619.73 911.625C1623.23 911.625 1626.23 912.25 1628.73 913.5C1631.32 914.667 1633.4 916.333 1634.98 918.5C1636.57 920.583 1637.73 923.083 1638.48 926C1639.23 928.833 1639.61 931.917 1639.61 935.25C1639.61 938.583 1639.23 941.708 1638.48 944.625C1637.73 947.458 1636.57 949.958 1634.98 952.125C1633.4 954.208 1631.32 955.833 1628.73 957C1626.23 958.167 1623.23 958.75 1619.73 958.75C1616.23 958.75 1613.19 958.167 1610.61 957C1608.11 955.833 1606.07 954.208 1604.48 952.125C1602.9 949.958 1601.73 947.458 1600.98 944.625C1600.23 941.708 1599.86 938.583 1599.86 935.25C1599.86 931.917 1600.23 928.833 1600.98 926C1601.73 923.083 1602.9 920.583 1604.48 918.5C1606.07 916.333 1608.11 914.667 1610.61 913.5C1613.19 912.25 1616.23 911.625 1619.73 911.625ZM1616.73 866.375H1622.61L1566.11 961.125H1560.11L1616.73 866.375ZM1564.86 874.375C1562.19 874.375 1559.98 874.958 1558.23 876.125C1556.57 877.208 1555.23 878.667 1554.23 880.5C1553.23 882.25 1552.53 884.208 1552.11 886.375C1551.78 888.458 1551.61 890.5 1551.61 892.5C1551.61 894.5 1551.78 896.542 1552.11 898.625C1552.53 900.708 1553.23 902.625 1554.23 904.375C1555.23 906.125 1556.57 907.583 1558.23 908.75C1559.98 909.833 1562.19 910.375 1564.86 910.375C1567.44 910.375 1569.57 909.833 1571.23 908.75C1572.98 907.583 1574.36 906.125 1575.36 904.375C1576.36 902.625 1577.07 900.708 1577.48 898.625C1577.9 896.542 1578.11 894.5 1578.11 892.5C1578.11 890.5 1577.9 888.458 1577.48 886.375C1577.07 884.208 1576.36 882.25 1575.36 880.5C1574.36 878.667 1572.98 877.208 1571.23 876.125C1569.57 874.958 1567.44 874.375 1564.86 874.375Z" fill="#F4E623"/>
<path d="M1134.96 1004.2H1151.82L1143.54 982.24L1134.96 1004.2ZM1141.44 978.16H1146L1162.8 1021H1158.42L1153.2 1007.68H1133.7L1128.54 1021H1124.22L1141.44 978.16ZM1171.98 998.5H1187.22C1188.46 998.5 1189.64 998.32 1190.76 997.96C1191.88 997.56 1192.86 997 1193.7 996.28C1194.54 995.56 1195.2 994.7 1195.68 993.7C1196.2 992.66 1196.46 991.48 1196.46 990.16C1196.46 987.52 1195.7 985.44 1194.18 983.92C1192.66 982.4 1190.34 981.64 1187.22 981.64H1171.98V998.5ZM1167.9 978.16H1187.52C1189.28 978.16 1190.94 978.38 1192.5 978.82C1194.1 979.26 1195.48 979.94 1196.64 980.86C1197.84 981.74 1198.78 982.9 1199.46 984.34C1200.18 985.74 1200.54 987.4 1200.54 989.32C1200.54 992.04 1199.84 994.4 1198.44 996.4C1197.04 998.4 1194.96 999.68 1192.2 1000.24V1000.36C1193.6 1000.56 1194.76 1000.94 1195.68 1001.5C1196.6 1002.02 1197.34 1002.7 1197.9 1003.54C1198.5 1004.38 1198.92 1005.36 1199.16 1006.48C1199.44 1007.56 1199.62 1008.74 1199.7 1010.02C1199.74 1010.74 1199.78 1011.62 1199.82 1012.66C1199.86 1013.7 1199.94 1014.76 1200.06 1015.84C1200.18 1016.88 1200.36 1017.88 1200.6 1018.84C1200.88 1019.76 1201.24 1020.48 1201.68 1021H1197.18C1196.94 1020.6 1196.74 1020.12 1196.58 1019.56C1196.46 1018.96 1196.36 1018.36 1196.28 1017.76C1196.24 1017.12 1196.2 1016.5 1196.16 1015.9C1196.12 1015.3 1196.08 1014.78 1196.04 1014.34C1195.96 1012.82 1195.82 1011.32 1195.62 1009.84C1195.46 1008.32 1195.08 1006.98 1194.48 1005.82C1193.92 1004.62 1193.08 1003.66 1191.96 1002.94C1190.88 1002.22 1189.38 1001.9 1187.46 1001.98H1171.98V1021H1167.9V978.16ZM1204.92 978.16H1238.82V981.64H1223.88V1021H1219.8V981.64H1204.92V978.16ZM1244.33 978.16H1248.41V1021H1244.33V978.16ZM1289.85 991.12C1289.49 989.48 1288.89 988.02 1288.05 986.74C1287.25 985.42 1286.25 984.32 1285.05 983.44C1283.89 982.56 1282.59 981.9 1281.15 981.46C1279.75 980.98 1278.27 980.74 1276.71 980.74C1273.87 980.74 1271.43 981.28 1269.39 982.36C1267.35 983.44 1265.67 984.88 1264.35 986.68C1263.07 988.44 1262.11 990.44 1261.47 992.68C1260.87 994.92 1260.57 997.22 1260.57 999.58C1260.57 1001.9 1260.87 1004.2 1261.47 1006.48C1262.11 1008.72 1263.07 1010.74 1264.35 1012.54C1265.67 1014.3 1267.35 1015.72 1269.39 1016.8C1271.43 1017.88 1273.87 1018.42 1276.71 1018.42C1278.71 1018.42 1280.51 1018.06 1282.11 1017.34C1283.71 1016.62 1285.09 1015.64 1286.25 1014.4C1287.41 1013.16 1288.35 1011.72 1289.07 1010.08C1289.79 1008.4 1290.25 1006.6 1290.45 1004.68H1294.53C1294.25 1007.32 1293.63 1009.7 1292.67 1011.82C1291.71 1013.94 1290.47 1015.74 1288.95 1017.22C1287.43 1018.7 1285.63 1019.84 1283.55 1020.64C1281.51 1021.44 1279.23 1021.84 1276.71 1021.84C1273.35 1021.84 1270.39 1021.24 1267.83 1020.04C1265.31 1018.8 1263.21 1017.16 1261.53 1015.12C1259.85 1013.08 1258.59 1010.72 1257.75 1008.04C1256.91 1005.36 1256.49 1002.54 1256.49 999.58C1256.49 996.62 1256.91 993.8 1257.75 991.12C1258.59 988.44 1259.85 986.08 1261.53 984.04C1263.21 981.96 1265.31 980.32 1267.83 979.12C1270.39 977.88 1273.35 977.26 1276.71 977.26C1278.75 977.26 1280.73 977.56 1282.65 978.16C1284.61 978.76 1286.37 979.66 1287.93 980.86C1289.53 982.02 1290.85 983.46 1291.89 985.18C1292.97 986.9 1293.65 988.88 1293.93 991.12H1289.85ZM1301.99 978.16H1306.07V1017.52H1330.07V1021H1301.99V978.16ZM1335.42 978.16H1365V981.64H1339.5V997.12H1363.38V1000.6H1339.5V1017.52H1365.3V1021H1335.42V978.16ZM1374.11 1006.9C1374.07 1009.1 1374.41 1010.94 1375.13 1012.42C1375.85 1013.9 1376.83 1015.08 1378.07 1015.96C1379.35 1016.84 1380.85 1017.48 1382.57 1017.88C1384.29 1018.24 1386.13 1018.42 1388.09 1018.42C1389.21 1018.42 1390.43 1018.26 1391.75 1017.94C1393.07 1017.62 1394.29 1017.12 1395.41 1016.44C1396.57 1015.72 1397.53 1014.82 1398.29 1013.74C1399.05 1012.62 1399.43 1011.28 1399.43 1009.72C1399.43 1008.52 1399.15 1007.48 1398.59 1006.6C1398.07 1005.72 1397.37 1004.98 1396.49 1004.38C1395.65 1003.78 1394.71 1003.3 1393.67 1002.94C1392.63 1002.54 1391.61 1002.22 1390.61 1001.98L1381.07 999.64C1379.83 999.32 1378.61 998.92 1377.41 998.44C1376.25 997.96 1375.23 997.32 1374.35 996.52C1373.47 995.72 1372.75 994.74 1372.19 993.58C1371.67 992.42 1371.41 991 1371.41 989.32C1371.41 988.28 1371.61 987.06 1372.01 985.66C1372.41 984.26 1373.15 982.94 1374.23 981.7C1375.35 980.46 1376.87 979.42 1378.79 978.58C1380.71 977.7 1383.17 977.26 1386.17 977.26C1388.29 977.26 1390.31 977.54 1392.23 978.1C1394.15 978.66 1395.83 979.5 1397.27 980.62C1398.71 981.74 1399.85 983.14 1400.69 984.82C1401.57 986.46 1402.01 988.38 1402.01 990.58H1397.93C1397.85 988.94 1397.47 987.52 1396.79 986.32C1396.15 985.08 1395.29 984.06 1394.21 983.26C1393.17 982.42 1391.95 981.8 1390.55 981.4C1389.19 980.96 1387.75 980.74 1386.23 980.74C1384.83 980.74 1383.47 980.9 1382.15 981.22C1380.87 981.5 1379.73 981.98 1378.73 982.66C1377.77 983.3 1376.99 984.16 1376.39 985.24C1375.79 986.32 1375.49 987.66 1375.49 989.26C1375.49 990.26 1375.65 991.14 1375.97 991.9C1376.33 992.62 1376.81 993.24 1377.41 993.76C1378.01 994.28 1378.69 994.7 1379.45 995.02C1380.25 995.34 1381.09 995.6 1381.97 995.8L1392.41 998.38C1393.93 998.78 1395.35 999.28 1396.67 999.88C1398.03 1000.44 1399.21 1001.16 1400.21 1002.04C1401.25 1002.88 1402.05 1003.92 1402.61 1005.16C1403.21 1006.4 1403.51 1007.9 1403.51 1009.66C1403.51 1010.14 1403.45 1010.78 1403.33 1011.58C1403.25 1012.38 1403.01 1013.24 1402.61 1014.16C1402.25 1015.04 1401.71 1015.94 1400.99 1016.86C1400.31 1017.78 1399.35 1018.62 1398.11 1019.38C1396.91 1020.1 1395.41 1020.68 1393.61 1021.12C1391.81 1021.6 1389.65 1021.84 1387.13 1021.84C1384.61 1021.84 1382.27 1021.56 1380.11 1021C1377.95 1020.4 1376.11 1019.5 1374.59 1018.3C1373.07 1017.1 1371.89 1015.56 1371.05 1013.68C1370.25 1011.8 1369.91 1009.54 1370.03 1006.9H1374.11ZM1431.02 1006.9C1430.98 1009.1 1431.32 1010.94 1432.04 1012.42C1432.76 1013.9 1433.74 1015.08 1434.98 1015.96C1436.26 1016.84 1437.76 1017.48 1439.48 1017.88C1441.2 1018.24 1443.04 1018.42 1445 1018.42C1446.12 1018.42 1447.34 1018.26 1448.66 1017.94C1449.98 1017.62 1451.2 1017.12 1452.32 1016.44C1453.48 1015.72 1454.44 1014.82 1455.2 1013.74C1455.96 1012.62 1456.34 1011.28 1456.34 1009.72C1456.34 1008.52 1456.06 1007.48 1455.5 1006.6C1454.98 1005.72 1454.28 1004.98 1453.4 1004.38C1452.56 1003.78 1451.62 1003.3 1450.58 1002.94C1449.54 1002.54 1448.52 1002.22 1447.52 1001.98L1437.98 999.64C1436.74 999.32 1435.52 998.92 1434.32 998.44C1433.16 997.96 1432.14 997.32 1431.26 996.52C1430.38 995.72 1429.66 994.74 1429.1 993.58C1428.58 992.42 1428.32 991 1428.32 989.32C1428.32 988.28 1428.52 987.06 1428.92 985.66C1429.32 984.26 1430.06 982.94 1431.14 981.7C1432.26 980.46 1433.78 979.42 1435.7 978.58C1437.62 977.7 1440.08 977.26 1443.08 977.26C1445.2 977.26 1447.22 977.54 1449.14 978.1C1451.06 978.66 1452.74 979.5 1454.18 980.62C1455.62 981.74 1456.76 983.14 1457.6 984.82C1458.48 986.46 1458.92 988.38 1458.92 990.58H1454.84C1454.76 988.94 1454.38 987.52 1453.7 986.32C1453.06 985.08 1452.2 984.06 1451.12 983.26C1450.08 982.42 1448.86 981.8 1447.46 981.4C1446.1 980.96 1444.66 980.74 1443.14 980.74C1441.74 980.74 1440.38 980.9 1439.06 981.22C1437.78 981.5 1436.64 981.98 1435.64 982.66C1434.68 983.3 1433.9 984.16 1433.3 985.24C1432.7 986.32 1432.4 987.66 1432.4 989.26C1432.4 990.26 1432.56 991.14 1432.88 991.9C1433.24 992.62 1433.72 993.24 1434.32 993.76C1434.92 994.28 1435.6 994.7 1436.36 995.02C1437.16 995.34 1438 995.6 1438.88 995.8L1449.32 998.38C1450.84 998.78 1452.26 999.28 1453.58 999.88C1454.94 1000.44 1456.12 1001.16 1457.12 1002.04C1458.16 1002.88 1458.96 1003.92 1459.52 1005.16C1460.12 1006.4 1460.42 1007.9 1460.42 1009.66C1460.42 1010.14 1460.36 1010.78 1460.24 1011.58C1460.16 1012.38 1459.92 1013.24 1459.52 1014.16C1459.16 1015.04 1458.62 1015.94 1457.9 1016.86C1457.22 1017.78 1456.26 1018.62 1455.02 1019.38C1453.82 1020.1 1452.32 1020.68 1450.52 1021.12C1448.72 1021.6 1446.56 1021.84 1444.04 1021.84C1441.52 1021.84 1439.18 1021.56 1437.02 1021C1434.86 1020.4 1433.02 1019.5 1431.5 1018.3C1429.98 1017.1 1428.8 1015.56 1427.96 1013.68C1427.16 1011.8 1426.82 1009.54 1426.94 1006.9H1431.02ZM1481.06 974.74H1478L1484.3 966.28H1488.98L1481.06 974.74ZM1468.1 978.16H1497.68V981.64H1472.18V997.12H1496.06V1000.6H1472.18V1017.52H1497.98V1021H1468.1V978.16ZM1504.87 978.16H1508.95V1017.52H1532.95V1021H1504.87V978.16ZM1538.31 978.16H1567.89V981.64H1542.39V997.12H1566.27V1000.6H1542.39V1017.52H1568.19V1021H1538.31V978.16ZM1606.4 991.12C1606.04 989.48 1605.44 988.02 1604.6 986.74C1603.8 985.42 1602.8 984.32 1601.6 983.44C1600.44 982.56 1599.14 981.9 1597.7 981.46C1596.3 980.98 1594.82 980.74 1593.26 980.74C1590.42 980.74 1587.98 981.28 1585.94 982.36C1583.9 983.44 1582.22 984.88 1580.9 986.68C1579.62 988.44 1578.66 990.44 1578.02 992.68C1577.42 994.92 1577.12 997.22 1577.12 999.58C1577.12 1001.9 1577.42 1004.2 1578.02 1006.48C1578.66 1008.72 1579.62 1010.74 1580.9 1012.54C1582.22 1014.3 1583.9 1015.72 1585.94 1016.8C1587.98 1017.88 1590.42 1018.42 1593.26 1018.42C1595.26 1018.42 1597.06 1018.06 1598.66 1017.34C1600.26 1016.62 1601.64 1015.64 1602.8 1014.4C1603.96 1013.16 1604.9 1011.72 1605.62 1010.08C1606.34 1008.4 1606.8 1006.6 1607 1004.68H1611.08C1610.8 1007.32 1610.18 1009.7 1609.22 1011.82C1608.26 1013.94 1607.02 1015.74 1605.5 1017.22C1603.98 1018.7 1602.18 1019.84 1600.1 1020.64C1598.06 1021.44 1595.78 1021.84 1593.26 1021.84C1589.9 1021.84 1586.94 1021.24 1584.38 1020.04C1581.86 1018.8 1579.76 1017.16 1578.08 1015.12C1576.4 1013.08 1575.14 1010.72 1574.3 1008.04C1573.46 1005.36 1573.04 1002.54 1573.04 999.58C1573.04 996.62 1573.46 993.8 1574.3 991.12C1575.14 988.44 1576.4 986.08 1578.08 984.04C1579.76 981.96 1581.86 980.32 1584.38 979.12C1586.94 977.88 1589.9 977.26 1593.26 977.26C1595.3 977.26 1597.28 977.56 1599.2 978.16C1601.16 978.76 1602.92 979.66 1604.48 980.86C1606.08 982.02 1607.4 983.46 1608.44 985.18C1609.52 986.9 1610.2 988.88 1610.48 991.12H1606.4ZM1613.97 978.16H1647.87V981.64H1632.93V1021H1628.85V981.64H1613.97V978.16ZM1653.38 978.16H1657.46V1021H1653.38V978.16ZM1669.39 999.58C1669.39 1001.9 1669.69 1004.2 1670.29 1006.48C1670.93 1008.72 1671.89 1010.74 1673.17 1012.54C1674.49 1014.3 1676.17 1015.72 1678.21 1016.8C1680.25 1017.88 1682.69 1018.42 1685.53 1018.42C1688.37 1018.42 1690.79 1017.88 1692.79 1016.8C1694.83 1015.72 1696.49 1014.3 1697.77 1012.54C1699.09 1010.74 1700.05 1008.72 1700.65 1006.48C1701.29 1004.2 1701.61 1001.9 1701.61 999.58C1701.61 997.22 1701.29 994.92 1700.65 992.68C1700.05 990.44 1699.09 988.44 1697.77 986.68C1696.49 984.88 1694.83 983.44 1692.79 982.36C1690.79 981.28 1688.37 980.74 1685.53 980.74C1682.69 980.74 1680.25 981.28 1678.21 982.36C1676.17 983.44 1674.49 984.88 1673.17 986.68C1671.89 988.44 1670.93 990.44 1670.29 992.68C1669.69 994.92 1669.39 997.22 1669.39 999.58ZM1665.31 999.58C1665.31 996.62 1665.73 993.8 1666.57 991.12C1667.41 988.44 1668.67 986.08 1670.35 984.04C1672.03 981.96 1674.13 980.32 1676.65 979.12C1679.21 977.88 1682.17 977.26 1685.53 977.26C1688.89 977.26 1691.83 977.88 1694.35 979.12C1696.87 980.32 1698.97 981.96 1700.65 984.04C1702.33 986.08 1703.59 988.44 1704.43 991.12C1705.27 993.8 1705.69 996.62 1705.69 999.58C1705.69 1002.54 1705.27 1005.36 1704.43 1008.04C1703.59 1010.72 1702.33 1013.08 1700.65 1015.12C1698.97 1017.16 1696.87 1018.8 1694.35 1020.04C1691.83 1021.24 1688.89 1021.84 1685.53 1021.84C1682.17 1021.84 1679.21 1021.24 1676.65 1020.04C1674.13 1018.8 1672.03 1017.16 1670.35 1015.12C1668.67 1013.08 1667.41 1010.72 1666.57 1008.04C1665.73 1005.36 1665.31 1002.54 1665.31 999.58ZM1713.21 978.16H1717.77L1742.73 1014.4H1742.85V978.16H1746.93V1021H1742.37L1717.41 984.76H1717.29V1021H1713.21V978.16ZM1756.66 978.16H1761.22L1786.18 1014.4H1786.3V978.16H1790.38V1021H1785.82L1760.86 984.76H1760.74V1021H1756.66V978.16ZM1813.13 974.74H1810.07L1816.37 966.28H1821.05L1813.13 974.74ZM1800.17 978.16H1829.75V981.64H1804.25V997.12H1828.13V1000.6H1804.25V1017.52H1830.05V1021H1800.17V978.16ZM1838.87 1006.9C1838.83 1009.1 1839.17 1010.94 1839.89 1012.42C1840.61 1013.9 1841.59 1015.08 1842.83 1015.96C1844.11 1016.84 1845.61 1017.48 1847.33 1017.88C1849.05 1018.24 1850.89 1018.42 1852.85 1018.42C1853.97 1018.42 1855.19 1018.26 1856.51 1017.94C1857.83 1017.62 1859.05 1017.12 1860.17 1016.44C1861.33 1015.72 1862.29 1014.82 1863.05 1013.74C1863.81 1012.62 1864.19 1011.28 1864.19 1009.72C1864.19 1008.52 1863.91 1007.48 1863.35 1006.6C1862.83 1005.72 1862.13 1004.98 1861.25 1004.38C1860.41 1003.78 1859.47 1003.3 1858.43 1002.94C1857.39 1002.54 1856.37 1002.22 1855.37 1001.98L1845.83 999.64C1844.59 999.32 1843.37 998.92 1842.17 998.44C1841.01 997.96 1839.99 997.32 1839.11 996.52C1838.23 995.72 1837.51 994.74 1836.95 993.58C1836.43 992.42 1836.17 991 1836.17 989.32C1836.17 988.28 1836.37 987.06 1836.77 985.66C1837.17 984.26 1837.91 982.94 1838.99 981.7C1840.11 980.46 1841.63 979.42 1843.55 978.58C1845.47 977.7 1847.93 977.26 1850.93 977.26C1853.05 977.26 1855.07 977.54 1856.99 978.1C1858.91 978.66 1860.59 979.5 1862.03 980.62C1863.47 981.74 1864.61 983.14 1865.45 984.82C1866.33 986.46 1866.77 988.38 1866.77 990.58H1862.69C1862.61 988.94 1862.23 987.52 1861.55 986.32C1860.91 985.08 1860.05 984.06 1858.97 983.26C1857.93 982.42 1856.71 981.8 1855.31 981.4C1853.95 980.96 1852.51 980.74 1850.99 980.74C1849.59 980.74 1848.23 980.9 1846.91 981.22C1845.63 981.5 1844.49 981.98 1843.49 982.66C1842.53 983.3 1841.75 984.16 1841.15 985.24C1840.55 986.32 1840.25 987.66 1840.25 989.26C1840.25 990.26 1840.41 991.14 1840.73 991.9C1841.09 992.62 1841.57 993.24 1842.17 993.76C1842.77 994.28 1843.45 994.7 1844.21 995.02C1845.01 995.34 1845.85 995.6 1846.73 995.8L1857.17 998.38C1858.69 998.78 1860.11 999.28 1861.43 999.88C1862.79 1000.44 1863.97 1001.16 1864.97 1002.04C1866.01 1002.88 1866.81 1003.92 1867.37 1005.16C1867.97 1006.4 1868.27 1007.9 1868.27 1009.66C1868.27 1010.14 1868.21 1010.78 1868.09 1011.58C1868.01 1012.38 1867.77 1013.24 1867.37 1014.16C1867.01 1015.04 1866.47 1015.94 1865.75 1016.86C1865.07 1017.78 1864.11 1018.62 1862.87 1019.38C1861.67 1020.1 1860.17 1020.68 1858.37 1021.12C1856.57 1021.6 1854.41 1021.84 1851.89 1021.84C1849.37 1021.84 1847.03 1021.56 1844.87 1021C1842.71 1020.4 1840.87 1019.5 1839.35 1018.3C1837.83 1017.1 1836.65 1015.56 1835.81 1013.68C1835.01 1011.8 1834.67 1009.54 1834.79 1006.9H1838.87Z" fill="#F4E623"/>
<path d="M1108.74 1081.16H1138.32V1084.64H1112.82V1100.12H1136.7V1103.6H1112.82V1120.52H1138.62V1124H1108.74V1081.16ZM1145.45 1081.16H1150.01L1174.97 1117.4H1175.09V1081.16H1179.17V1124H1174.61L1149.65 1087.76H1149.53V1124H1145.45V1081.16ZM1206.87 1081.16H1210.95V1120.52H1234.95V1124H1206.87V1081.16ZM1240.6 1081.16H1244.68V1124H1240.6V1081.16ZM1291.41 1124H1288.47L1287.93 1116.2H1287.81C1287.09 1117.72 1286.19 1119.04 1285.11 1120.16C1284.07 1121.24 1282.91 1122.14 1281.63 1122.86C1280.35 1123.54 1278.97 1124.04 1277.49 1124.36C1276.05 1124.68 1274.55 1124.84 1272.99 1124.84C1269.63 1124.84 1266.67 1124.24 1264.11 1123.04C1261.59 1121.8 1259.49 1120.16 1257.81 1118.12C1256.13 1116.08 1254.87 1113.72 1254.03 1111.04C1253.19 1108.36 1252.77 1105.54 1252.77 1102.58C1252.77 1099.62 1253.19 1096.8 1254.03 1094.12C1254.87 1091.44 1256.13 1089.08 1257.81 1087.04C1259.49 1084.96 1261.59 1083.32 1264.11 1082.12C1266.67 1080.88 1269.63 1080.26 1272.99 1080.26C1275.23 1080.26 1277.35 1080.56 1279.35 1081.16C1281.35 1081.76 1283.13 1082.66 1284.69 1083.86C1286.25 1085.06 1287.57 1086.54 1288.65 1088.3C1289.73 1090.06 1290.47 1092.12 1290.87 1094.48H1286.79C1286.67 1093.24 1286.25 1092 1285.53 1090.76C1284.85 1089.48 1283.91 1088.32 1282.71 1087.28C1281.55 1086.24 1280.15 1085.4 1278.51 1084.76C1276.87 1084.08 1275.03 1083.74 1272.99 1083.74C1270.15 1083.74 1267.71 1084.28 1265.67 1085.36C1263.63 1086.44 1261.95 1087.88 1260.63 1089.68C1259.35 1091.44 1258.39 1093.44 1257.75 1095.68C1257.15 1097.92 1256.85 1100.22 1256.85 1102.58C1256.85 1104.9 1257.15 1107.2 1257.75 1109.48C1258.39 1111.72 1259.35 1113.74 1260.63 1115.54C1261.95 1117.3 1263.63 1118.72 1265.67 1119.8C1267.71 1120.88 1270.15 1121.42 1272.99 1121.42C1275.35 1121.42 1277.45 1121.04 1279.29 1120.28C1281.17 1119.48 1282.75 1118.38 1284.03 1116.98C1285.31 1115.58 1286.27 1113.92 1286.91 1112C1287.55 1110.08 1287.85 1107.98 1287.81 1105.7H1273.23V1102.22H1291.41V1124ZM1300.43 1081.16H1304.99L1329.95 1117.4H1330.07V1081.16H1334.15V1124H1329.59L1304.63 1087.76H1304.51V1124H1300.43V1081.16ZM1343.95 1081.16H1373.52V1084.64H1348.03V1100.12H1371.91V1103.6H1348.03V1120.52H1373.83V1124H1343.95V1081.16ZM1398.62 1081.16H1428.2V1084.64H1402.7V1100.12H1426.58V1103.6H1402.7V1120.52H1428.5V1124H1398.62V1081.16ZM1430.84 1081.16H1464.74V1084.64H1449.8V1124H1445.72V1084.64H1430.84V1081.16ZM1487.85 1081.16H1517.43V1084.64H1491.93V1100.12H1515.81V1103.6H1491.93V1120.52H1517.73V1124H1487.85V1081.16ZM1524.56 1081.16H1529.12L1554.08 1117.4H1554.2V1081.16H1558.28V1124H1553.72L1528.76 1087.76H1528.64V1124H1524.56V1081.16ZM1591.86 1081.16L1606.08 1118.72L1620.84 1081.16H1626.84V1124H1622.76V1086.98H1622.64L1608 1124H1604.16L1590.06 1086.98H1589.94V1124H1585.86V1081.16H1591.86ZM1642.53 1107.2H1659.39L1651.11 1085.24L1642.53 1107.2ZM1649.01 1081.16H1653.57L1670.37 1124H1665.99L1660.77 1110.68H1641.27L1636.11 1124H1631.79L1649.01 1081.16ZM1712.07 1124H1709.13L1708.59 1116.2H1708.47C1707.75 1117.72 1706.85 1119.04 1705.77 1120.16C1704.73 1121.24 1703.57 1122.14 1702.29 1122.86C1701.01 1123.54 1699.63 1124.04 1698.15 1124.36C1696.71 1124.68 1695.21 1124.84 1693.65 1124.84C1690.29 1124.84 1687.33 1124.24 1684.77 1123.04C1682.25 1121.8 1680.15 1120.16 1678.47 1118.12C1676.79 1116.08 1675.53 1113.72 1674.69 1111.04C1673.85 1108.36 1673.43 1105.54 1673.43 1102.58C1673.43 1099.62 1673.85 1096.8 1674.69 1094.12C1675.53 1091.44 1676.79 1089.08 1678.47 1087.04C1680.15 1084.96 1682.25 1083.32 1684.77 1082.12C1687.33 1080.88 1690.29 1080.26 1693.65 1080.26C1695.89 1080.26 1698.01 1080.56 1700.01 1081.16C1702.01 1081.76 1703.79 1082.66 1705.35 1083.86C1706.91 1085.06 1708.23 1086.54 1709.31 1088.3C1710.39 1090.06 1711.13 1092.12 1711.53 1094.48H1707.45C1707.33 1093.24 1706.91 1092 1706.19 1090.76C1705.51 1089.48 1704.57 1088.32 1703.37 1087.28C1702.21 1086.24 1700.81 1085.4 1699.17 1084.76C1697.53 1084.08 1695.69 1083.74 1693.65 1083.74C1690.81 1083.74 1688.37 1084.28 1686.33 1085.36C1684.29 1086.44 1682.61 1087.88 1681.29 1089.68C1680.01 1091.44 1679.05 1093.44 1678.41 1095.68C1677.81 1097.92 1677.51 1100.22 1677.51 1102.58C1677.51 1104.9 1677.81 1107.2 1678.41 1109.48C1679.05 1111.72 1680.01 1113.74 1681.29 1115.54C1682.61 1117.3 1684.29 1118.72 1686.33 1119.8C1688.37 1120.88 1690.81 1121.42 1693.65 1121.42C1696.01 1121.42 1698.11 1121.04 1699.95 1120.28C1701.83 1119.48 1703.41 1118.38 1704.69 1116.98C1705.97 1115.58 1706.93 1113.92 1707.57 1112C1708.21 1110.08 1708.51 1107.98 1708.47 1105.7H1693.89V1102.22H1712.07V1124ZM1727.21 1107.2H1744.07L1735.79 1085.24L1727.21 1107.2ZM1733.69 1081.16H1738.25L1755.05 1124H1750.67L1745.45 1110.68H1725.95L1720.79 1124H1716.47L1733.69 1081.16ZM1762.07 1109.9C1762.03 1112.1 1762.37 1113.94 1763.09 1115.42C1763.81 1116.9 1764.79 1118.08 1766.03 1118.96C1767.31 1119.84 1768.81 1120.48 1770.53 1120.88C1772.25 1121.24 1774.09 1121.42 1776.05 1121.42C1777.17 1121.42 1778.39 1121.26 1779.71 1120.94C1781.03 1120.62 1782.25 1120.12 1783.37 1119.44C1784.53 1118.72 1785.49 1117.82 1786.25 1116.74C1787.01 1115.62 1787.39 1114.28 1787.39 1112.72C1787.39 1111.52 1787.11 1110.48 1786.55 1109.6C1786.03 1108.72 1785.33 1107.98 1784.45 1107.38C1783.61 1106.78 1782.67 1106.3 1781.63 1105.94C1780.59 1105.54 1779.57 1105.22 1778.57 1104.98L1769.03 1102.64C1767.79 1102.32 1766.57 1101.92 1765.37 1101.44C1764.21 1100.96 1763.19 1100.32 1762.31 1099.52C1761.43 1098.72 1760.71 1097.74 1760.15 1096.58C1759.63 1095.42 1759.37 1094 1759.37 1092.32C1759.37 1091.28 1759.57 1090.06 1759.97 1088.66C1760.37 1087.26 1761.11 1085.94 1762.19 1084.7C1763.31 1083.46 1764.83 1082.42 1766.75 1081.58C1768.67 1080.7 1771.13 1080.26 1774.13 1080.26C1776.25 1080.26 1778.27 1080.54 1780.19 1081.1C1782.11 1081.66 1783.79 1082.5 1785.23 1083.62C1786.67 1084.74 1787.81 1086.14 1788.65 1087.82C1789.53 1089.46 1789.97 1091.38 1789.97 1093.58H1785.89C1785.81 1091.94 1785.43 1090.52 1784.75 1089.32C1784.11 1088.08 1783.25 1087.06 1782.17 1086.26C1781.13 1085.42 1779.91 1084.8 1778.51 1084.4C1777.15 1083.96 1775.71 1083.74 1774.19 1083.74C1772.79 1083.74 1771.43 1083.9 1770.11 1084.22C1768.83 1084.5 1767.69 1084.98 1766.69 1085.66C1765.73 1086.3 1764.95 1087.16 1764.35 1088.24C1763.75 1089.32 1763.45 1090.66 1763.45 1092.26C1763.45 1093.26 1763.61 1094.14 1763.93 1094.9C1764.29 1095.62 1764.77 1096.24 1765.37 1096.76C1765.97 1097.28 1766.65 1097.7 1767.41 1098.02C1768.21 1098.34 1769.05 1098.6 1769.93 1098.8L1780.37 1101.38C1781.89 1101.78 1783.31 1102.28 1784.63 1102.88C1785.99 1103.44 1787.17 1104.16 1788.17 1105.04C1789.21 1105.88 1790.01 1106.92 1790.57 1108.16C1791.17 1109.4 1791.47 1110.9 1791.47 1112.66C1791.47 1113.14 1791.41 1113.78 1791.29 1114.58C1791.21 1115.38 1790.97 1116.24 1790.57 1117.16C1790.21 1118.04 1789.67 1118.94 1788.95 1119.86C1788.27 1120.78 1787.31 1121.62 1786.07 1122.38C1784.87 1123.1 1783.37 1123.68 1781.57 1124.12C1779.77 1124.6 1777.61 1124.84 1775.09 1124.84C1772.57 1124.84 1770.23 1124.56 1768.07 1124C1765.91 1123.4 1764.07 1122.5 1762.55 1121.3C1761.03 1120.1 1759.85 1118.56 1759.01 1116.68C1758.21 1114.8 1757.87 1112.54 1757.99 1109.9H1762.07ZM1799.45 1081.16H1803.53V1124H1799.45V1081.16ZM1813.6 1081.16H1818.16L1843.12 1117.4H1843.24V1081.16H1847.32V1124H1842.76L1817.8 1087.76H1817.68V1124H1813.6V1081.16ZM1859.03 1109.9C1858.99 1112.1 1859.33 1113.94 1860.05 1115.42C1860.77 1116.9 1861.75 1118.08 1862.99 1118.96C1864.27 1119.84 1865.77 1120.48 1867.49 1120.88C1869.21 1121.24 1871.05 1121.42 1873.01 1121.42C1874.13 1121.42 1875.35 1121.26 1876.67 1120.94C1877.99 1120.62 1879.21 1120.12 1880.33 1119.44C1881.49 1118.72 1882.45 1117.82 1883.21 1116.74C1883.97 1115.62 1884.35 1114.28 1884.35 1112.72C1884.35 1111.52 1884.07 1110.48 1883.51 1109.6C1882.99 1108.72 1882.29 1107.98 1881.41 1107.38C1880.57 1106.78 1879.63 1106.3 1878.59 1105.94C1877.55 1105.54 1876.53 1105.22 1875.53 1104.98L1865.99 1102.64C1864.75 1102.32 1863.53 1101.92 1862.33 1101.44C1861.17 1100.96 1860.15 1100.32 1859.27 1099.52C1858.39 1098.72 1857.67 1097.74 1857.11 1096.58C1856.59 1095.42 1856.33 1094 1856.33 1092.32C1856.33 1091.28 1856.53 1090.06 1856.93 1088.66C1857.33 1087.26 1858.07 1085.94 1859.15 1084.7C1860.27 1083.46 1861.79 1082.42 1863.71 1081.58C1865.63 1080.7 1868.09 1080.26 1871.09 1080.26C1873.21 1080.26 1875.23 1080.54 1877.15 1081.1C1879.07 1081.66 1880.75 1082.5 1882.19 1083.62C1883.63 1084.74 1884.77 1086.14 1885.61 1087.82C1886.49 1089.46 1886.93 1091.38 1886.93 1093.58H1882.85C1882.77 1091.94 1882.39 1090.52 1881.71 1089.32C1881.07 1088.08 1880.21 1087.06 1879.13 1086.26C1878.09 1085.42 1876.87 1084.8 1875.47 1084.4C1874.11 1083.96 1872.67 1083.74 1871.15 1083.74C1869.75 1083.74 1868.39 1083.9 1867.07 1084.22C1865.79 1084.5 1864.65 1084.98 1863.65 1085.66C1862.69 1086.3 1861.91 1087.16 1861.31 1088.24C1860.71 1089.32 1860.41 1090.66 1860.41 1092.26C1860.41 1093.26 1860.57 1094.14 1860.89 1094.9C1861.25 1095.62 1861.73 1096.24 1862.33 1096.76C1862.93 1097.28 1863.61 1097.7 1864.37 1098.02C1865.17 1098.34 1866.01 1098.6 1866.89 1098.8L1877.33 1101.38C1878.85 1101.78 1880.27 1102.28 1881.59 1102.88C1882.95 1103.44 1884.13 1104.16 1885.13 1105.04C1886.17 1105.88 1886.97 1106.92 1887.53 1108.16C1888.13 1109.4 1888.43 1110.9 1888.43 1112.66C1888.43 1113.14 1888.37 1113.78 1888.25 1114.58C1888.17 1115.38 1887.93 1116.24 1887.53 1117.16C1887.17 1118.04 1886.63 1118.94 1885.91 1119.86C1885.23 1120.78 1884.27 1121.62 1883.03 1122.38C1881.83 1123.1 1880.33 1123.68 1878.53 1124.12C1876.73 1124.6 1874.57 1124.84 1872.05 1124.84C1869.53 1124.84 1867.19 1124.56 1865.03 1124C1862.87 1123.4 1861.03 1122.5 1859.51 1121.3C1857.99 1120.1 1856.81 1118.56 1855.97 1116.68C1855.17 1114.8 1854.83 1112.54 1854.95 1109.9H1859.03Z" fill="#F4E623"/>
</g>
<defs>
<clipPath id="clip0_1068_161145">
<rect width="3000" height="1700" fill="white"/>
</clipPath>
</defs>
</svg>
